<svg xmlns="http://www.w3.org/2000/svg" viewBox="0 0 3098.96 854.71"><defs><style>.cls-1{fill:#86519b;}.cls-1,.cls-2,.cls-3,.cls-7{fill-rule:evenodd;}.cls-2{fill:#6a3184;}.cls-3,.cls-5{fill:#a062a5;}.cls-4{fill:none;}.cls-6,.cls-7{fill:#fff;}</style></defs><title>RGB_logo_color_light</title><g id="Ebene_2" data-name="Ebene 2"><g id="logo_color_light"><g id="Icon"><g id="Icon-2" data-name="Icon"><polygon class="cls-1" points="347.04 288.24 427.36 241.87 517.04 190.09 427.36 138.31 302.2 210.57 177.04 282.83 266.72 334.61 347.04 288.24"/><polygon class="cls-1" points="677.67 282.83 587.99 231.06 498.31 282.83 337.67 375.58 427.36 427.36 587.99 334.61 677.67 282.83"/><polygon class="cls-2" points="427.36 612.84 347.04 566.47 266.72 520.1 266.72 427.36 266.72 416.54 266.72 334.61 177.04 282.83 177.04 427.36 177.04 571.88 302.2 644.14 427.36 716.4 427.36 612.84"/><polygon class="cls-3" points="677.67 571.88 677.67 427.36 677.67 282.83 587.99 334.61 587.99 427.36 587.99 520.1 507.67 566.47 427.36 612.84 427.36 716.4 552.51 644.14 677.67 571.88"/></g><rect id="Freiraum" class="cls-4" width="854.71" height="854.71"/></g><g id="Text"><g id="Text-2" data-name="Text"><g id="Zeile_2" data-name="Zeile 2"><path class="cls-5" d="M1077.17,494.63h24.6v79h-24.6Z"/><path class="cls-5" d="M1302.8,511.11h-74.66v62.48h-24.6V511.11h-48.21V494.63H1302.8Z"/><path class="cls-5" d="M1563.32,494.63V511H1465.9v14.39h97.42v35.91q0,5.91-3.08,9.23-3.08,3.08-9.22,3.07H1441.3V557.24h98.4V541.86h-98.4V506.93a12.64,12.64,0,0,1,3.08-8.74q3.06-3.56,9.22-3.56Z"/><path class="cls-5" d="M1747.58,498.32a14.31,14.31,0,0,1,2.59,8.61v54.36q0,7.26-3.57,9.72a11.57,11.57,0,0,1-6.64,2.58H1627.17q-3,0-6.65-2.58t-3.56-9.72V506.93a12.43,12.43,0,0,1,3.07-8.61q3.08-3.69,9.23-3.69H1739Q1745.12,494.63,1747.58,498.32Zm-64,12.79h-42.06v46.13h85.11V511.11Z"/><path class="cls-5" d="M1819.23,573.59a21.32,21.32,0,0,1-10.7-2.58q-4.68-2.58-4.68-9.72V494.63h23.62v62.61h96.31v16.35Z"/><path class="cls-5" d="M2001.94,557.24h85.12V494.63h23.49v68.76q0,10.2-10.21,10.2H1987.55c-2,0-4.18-.86-6.64-2.58s-3.57-5-3.57-9.72V494.63h24.6Z"/><path class="cls-5" d="M2285.1,511.11H2237v62.48h-24.6V511.11h-48.22V494.63H2285.1Z"/><path class="cls-5" d="M2338.73,494.63h24.6v79h-24.6Z"/><path class="cls-5" d="M2547.56,498.32a14.3,14.3,0,0,1,2.58,8.61v54.36q0,7.26-3.57,9.72a11.55,11.55,0,0,1-6.64,2.58H2427.14q-3,0-6.64-2.58t-3.57-9.72V506.93a12.43,12.43,0,0,1,3.08-8.61q3.07-3.69,9.22-3.69H2539Q2545.1,494.63,2547.56,498.32Zm-64,12.79h-42.07v46.13h85.12V511.11Z"/><path class="cls-5" d="M2701.25,554.16V494.63h24.6v69.74a9.17,9.17,0,0,1-2.09,5.66,13.57,13.57,0,0,1-4.06,3.56,24.48,24.48,0,0,1-12.3,1,29,29,0,0,1-11.32-4.06q-4.8-3.57-9.72-7.13T2676,555.57q-5.47-4.23-11.62-9.16L2640.73,528q-11.33-8.61-13.28-11.81v57.44h-23.62V505a9.57,9.57,0,0,1,3.57-7.26,20.24,20.24,0,0,1,7.75-4.06c1,0,2.11.05,3.38.13s2.68.2,4.24.37a19.7,19.7,0,0,1,7.75,2.58Z"/><path class="cls-5" d="M2901.5,494.63V511h-97.41v14.39h97.41v35.91q0,5.91-3.07,9.23-3.07,3.08-9.23,3.07H2779.49V557.24h98.4V541.86h-98.4V506.93a12.64,12.64,0,0,1,3.07-8.74q3.08-3.56,9.23-3.56Z"/></g><g id="Zeile_1" data-name="Zeile 1"><path class="cls-6" d="M1224,335.19v19H1098.6v53.25h98.26V389.72h-68.72V372H1224v42.6q0,11.79-11.79,11.79H1082c-2.28,0-4.83-1-7.67-3s-4.12-5.72-4.12-11.21V349.39a14.37,14.37,0,0,1,3.55-9.94c2.36-2.84,5.92-4.26,10.65-4.26Z"/><path class="cls-6" d="M1436.72,339.45a16.56,16.56,0,0,1,3,9.94v62.77q0,8.37-4.12,11.21c-2.75,2-5.3,3-7.67,3H1297.7q-3.4,0-7.67-3t-4.12-11.21V349.39a14.37,14.37,0,0,1,3.55-9.94q3.55-4.26,10.65-4.26h126.67Q1433.88,335.19,1436.72,339.45Zm-73.84,14.77h-48.57v53.25h98.27V354.22Z"/><path class="cls-6" d="M1501.58,281.91h45V426.36h-45Z"/><path class="cls-6" d="M1822.84,390.81V281.91h45V409.48a16.71,16.71,0,0,1-3.83,10.35,25,25,0,0,1-7.42,6.53,45,45,0,0,1-22.5,1.8,52.74,52.74,0,0,1-20.7-7.43q-8.78-6.53-17.78-13.05t-19-14.29q-10-7.75-21.26-16.76l-43.2-33.75q-20.72-15.75-24.3-21.6V426.36h-43.2V300.81q0-7.43,6.52-13.28a36.94,36.94,0,0,1,14.18-7.42q2.7,0,6.18.22c2.33.15,4.91.38,7.77.68a36,36,0,0,1,14.17,4.72Z"/><path class="cls-6" d="M2183.62,288.43a24.18,24.18,0,0,1,5.63,16v41.4q0,11-6.53,16.87-7,5.63-12.37,5.63h-161.1v58.05h-43.2v-88.2h180V311.83h-180V281.91h200.7Q2178,281.91,2183.62,288.43Z"/><path class="cls-6" d="M2332.37,396.43h155.7V281.91h43V407.68q0,18.68-18.67,18.68H2306q-5.4,0-12.15-4.73-6.53-4.72-6.52-17.77V281.91h45Z"/><path class="cls-6" d="M2898.94,312.06H2762.36v114.3h-45V312.06h-88.2V281.91h269.78Z"/></g></g><rect id="Freiraum-2" data-name="Freiraum" class="cls-4" x="886.96" width="2212" height="854.71"/></g><path id="Trenner" class="cls-7" d="M863.91,57.28c-8.84,0-6.82,740.16,0,740.16S872.74,57.28,863.91,57.28Z"/></g></g></svg>